# xmcd
#
# Track frame offsets: 
#        150
#        18094
#        35397
#        47822
#        61429
#        76969
#        90119
#        106642
#        124891
#        138541
#        150424
#        163132
#
# Disc length: 2343 seconds
#
# Revision: 0
# Processed by: cddbd v1.5.2PL0 Copyright (c) Steve Scherf et al.
# Submitted via: ExactAudioCopy v1.0b3
#
DISCID=8809250c
DTITLE=Gary Campbell - Gary Campbell
DYEAR=2005
DGENRE=Country
TTITLE0=Dance Till Dawn
TTITLE1=Aisle Four
TTITLE2=Mandatory Overtime
TTITLE3=A Heart You'll Have To Face
TTITLE4=Down Into Muddy Water
TTITLE5=Baby It's You
TTITLE6=You're The Reason Why
TTITLE7=We Can't Get Along
TTITLE8=If I Was A VCR
TTITLE9=Wait Problem
TTITLE10=I Keep Forgettin'
TTITLE11=Lovin' It
EXTD=
EXTT0=
EXTT1=
EXTT2=
EXTT3=
EXTT4=
EXTT5=
EXTT6=
EXTT7=
EXTT8=
EXTT9=
EXTT10=
EXTT11=
PLAYORDER=
